<mxfile host="Electron" modified="2023-05-08T13:47:45.058Z" agent="Mozilla/5.0 (X11; Linux x86_64) AppleWebKit/537.36 (KHTML, like Gecko) draw.io/21.2.8 Chrome/112.0.5615.165 Electron/24.2.0 Safari/537.36" etag="SSPKiW4VDf4to7aqxyel" version="21.2.8" type="device">
  <diagram name="Page-1" id="cIfpYIsEWEqElGLKZrMP">
    <mxGraphModel dx="-38" dy="503" grid="1" gridSize="10" guides="1" tooltips="1" connect="1" arrows="1" fold="1" page="1" pageScale="1" pageWidth="827" pageHeight="1169" background="#ffffff" math="0" shadow="0">
      <root>
        <mxCell id="0" />
        <mxCell id="1" parent="0" />
        <mxCell id="7Zm0GNdPnsGpyLdCq4jj-93" value="Decoder 16-bit" style="rounded=0;whiteSpace=wrap;html=1;strokeColor=none;fillColor=#242424;fontStyle=1;align=left;fontSize=10;" parent="1" vertex="1">
          <mxGeometry x="1101" y="80" width="130" height="20" as="geometry" />
        </mxCell>
        <mxCell id="7Zm0GNdPnsGpyLdCq4jj-94" value="D16" style="rounded=0;whiteSpace=wrap;html=1;strokeColor=none;fillColor=#C45747;fontStyle=1;align=center;fontSize=10;" parent="1" vertex="1">
          <mxGeometry x="1070" y="80" width="31" height="20" as="geometry" />
        </mxCell>
        <mxCell id="RRfzHEm0QSZrdTFDj_sS-76" value="AUTO" style="rounded=0;whiteSpace=wrap;html=1;strokeColor=none;fillColor=#3D4CAD;fontStyle=1;align=center;fontSize=10;" vertex="1" parent="1">
          <mxGeometry x="1070" y="30" width="40" height="10" as="geometry" />
        </mxCell>
        <mxCell id="RRfzHEm0QSZrdTFDj_sS-77" value="DEBUG" style="rounded=0;whiteSpace=wrap;html=1;strokeColor=none;fillColor=#3D4CAD;fontStyle=1;align=center;fontSize=10;" vertex="1" parent="1">
          <mxGeometry x="1070" y="40" width="40" height="10" as="geometry" />
        </mxCell>
        <mxCell id="RRfzHEm0QSZrdTFDj_sS-78" value="FAST" style="rounded=0;whiteSpace=wrap;html=1;strokeColor=none;fillColor=#3D4CAD;fontStyle=1;align=center;fontSize=10;" vertex="1" parent="1">
          <mxGeometry x="1070" y="50" width="40" height="10" as="geometry" />
        </mxCell>
        <mxCell id="RRfzHEm0QSZrdTFDj_sS-79" value="SLOW" style="rounded=0;whiteSpace=wrap;html=1;strokeColor=none;fillColor=#3D4CAD;fontStyle=1;align=center;fontSize=10;" vertex="1" parent="1">
          <mxGeometry x="1070" y="60" width="40" height="10" as="geometry" />
        </mxCell>
        <mxCell id="RRfzHEm0QSZrdTFDj_sS-86" value="" style="group" vertex="1" connectable="0" parent="1">
          <mxGeometry x="950" y="29.997499999999995" width="80" height="320" as="geometry" />
        </mxCell>
        <mxCell id="djlaf332tIQgtVbpKe8j-1" value="Invert" style="rounded=0;whiteSpace=wrap;html=1;strokeColor=none;fillColor=#242424;fontStyle=1;align=right;fontSize=7;" parent="RRfzHEm0QSZrdTFDj_sS-86" vertex="1">
          <mxGeometry y="299.988359442008" width="43" height="20.001640557992015" as="geometry" />
        </mxCell>
        <mxCell id="djlaf332tIQgtVbpKe8j-2" value="Propagate" style="rounded=0;whiteSpace=wrap;html=1;strokeColor=none;fillColor=#242424;fontStyle=1;align=right;fontSize=7;" parent="RRfzHEm0QSZrdTFDj_sS-86" vertex="1">
          <mxGeometry y="279.99189730228346" width="43" height="20.001640557992015" as="geometry" />
        </mxCell>
        <mxCell id="djlaf332tIQgtVbpKe8j-3" value="Direct" style="rounded=0;whiteSpace=wrap;html=1;strokeColor=none;fillColor=#242424;fontStyle=1;align=right;fontSize=7;" parent="RRfzHEm0QSZrdTFDj_sS-86" vertex="1">
          <mxGeometry y="259.98507832602417" width="43" height="20.001640557992015" as="geometry" />
        </mxCell>
        <mxCell id="djlaf332tIQgtVbpKe8j-4" value="Halt" style="rounded=0;whiteSpace=wrap;html=1;strokeColor=none;fillColor=#242424;fontStyle=1;align=right;fontSize=7;" parent="RRfzHEm0QSZrdTFDj_sS-86" vertex="1">
          <mxGeometry y="239.98861618629937" width="43" height="20.001640557992015" as="geometry" />
        </mxCell>
        <mxCell id="tiWv2YmoTtYMi_YgK9l2-10" value="ValRead" style="rounded=0;whiteSpace=wrap;html=1;strokeColor=none;fillColor=#242424;fontStyle=1;align=right;fontSize=7;" parent="RRfzHEm0QSZrdTFDj_sS-86" vertex="1">
          <mxGeometry y="219.99215404657488" width="43" height="20.001640557992015" as="geometry" />
        </mxCell>
        <mxCell id="tiWv2YmoTtYMi_YgK9l2-11" value="Immediate" style="rounded=0;whiteSpace=wrap;html=1;strokeColor=none;fillColor=#242424;fontStyle=1;align=right;fontSize=7;" parent="RRfzHEm0QSZrdTFDj_sS-86" vertex="1">
          <mxGeometry y="199.9956919068504" width="43" height="20.001640557992015" as="geometry" />
        </mxCell>
        <mxCell id="tiWv2YmoTtYMi_YgK9l2-12" value="WriteMEM" style="rounded=0;whiteSpace=wrap;html=1;strokeColor=none;fillColor=#242424;fontStyle=1;align=right;fontSize=7;" parent="RRfzHEm0QSZrdTFDj_sS-86" vertex="1">
          <mxGeometry y="179.9992297671258" width="43" height="20.001640557992015" as="geometry" />
        </mxCell>
        <mxCell id="tiWv2YmoTtYMi_YgK9l2-13" value="WriteALU" style="rounded=0;whiteSpace=wrap;html=1;strokeColor=none;fillColor=#242424;fontStyle=1;align=right;fontSize=7;" parent="RRfzHEm0QSZrdTFDj_sS-86" vertex="1">
          <mxGeometry y="160.00276762740125" width="43" height="20.001640557992015" as="geometry" />
        </mxCell>
        <mxCell id="tiWv2YmoTtYMi_YgK9l2-14" value="WriteMDR" style="rounded=0;whiteSpace=wrap;html=1;strokeColor=none;fillColor=#242424;fontStyle=1;align=right;fontSize=7;" parent="RRfzHEm0QSZrdTFDj_sS-86" vertex="1">
          <mxGeometry y="140.00630548767666" width="43" height="20.001640557992015" as="geometry" />
        </mxCell>
        <mxCell id="tiWv2YmoTtYMi_YgK9l2-15" value="WriteVAL" style="rounded=0;whiteSpace=wrap;html=1;strokeColor=none;fillColor=#242424;fontStyle=1;align=right;fontSize=7;" parent="RRfzHEm0QSZrdTFDj_sS-86" vertex="1">
          <mxGeometry y="120.00984334795207" width="43" height="20.001640557992015" as="geometry" />
        </mxCell>
        <mxCell id="tiWv2YmoTtYMi_YgK9l2-16" value="WriteALU" style="rounded=0;whiteSpace=wrap;html=1;strokeColor=none;fillColor=#242424;fontStyle=1;align=right;fontSize=7;" parent="RRfzHEm0QSZrdTFDj_sS-86" vertex="1">
          <mxGeometry y="100.0133812082275" width="43" height="20.001640557992015" as="geometry" />
        </mxCell>
        <mxCell id="tiWv2YmoTtYMi_YgK9l2-17" value="Direct" style="rounded=0;whiteSpace=wrap;html=1;strokeColor=none;fillColor=#242424;fontStyle=1;align=right;fontSize=7;" parent="RRfzHEm0QSZrdTFDj_sS-86" vertex="1">
          <mxGeometry y="80.00656223196805" width="43" height="20.001640557992015" as="geometry" />
        </mxCell>
        <mxCell id="tiWv2YmoTtYMi_YgK9l2-18" value="ValRead" style="rounded=0;whiteSpace=wrap;html=1;strokeColor=none;fillColor=#242424;fontStyle=1;align=right;fontSize=7;" parent="RRfzHEm0QSZrdTFDj_sS-86" vertex="1">
          <mxGeometry y="59.999743255708616" width="43" height="20.001640557992015" as="geometry" />
        </mxCell>
        <mxCell id="tiWv2YmoTtYMi_YgK9l2-19" value="Immediate" style="rounded=0;whiteSpace=wrap;html=1;strokeColor=none;fillColor=#242424;fontStyle=1;align=right;fontSize=7;" parent="RRfzHEm0QSZrdTFDj_sS-86" vertex="1">
          <mxGeometry y="40.003281115984045" width="43" height="20.001640557992015" as="geometry" />
        </mxCell>
        <mxCell id="tiWv2YmoTtYMi_YgK9l2-33" value="CarryOut" style="rounded=0;whiteSpace=wrap;html=1;strokeColor=none;fillColor=#242424;fontStyle=1;align=right;fontSize=7;" parent="RRfzHEm0QSZrdTFDj_sS-86" vertex="1">
          <mxGeometry y="19.99646213972457" width="43" height="20.001640557992015" as="geometry" />
        </mxCell>
        <mxCell id="tiWv2YmoTtYMi_YgK9l2-34" value="OrOut" style="rounded=0;whiteSpace=wrap;html=1;strokeColor=none;fillColor=#242424;fontStyle=1;align=right;fontSize=7;" parent="RRfzHEm0QSZrdTFDj_sS-86" vertex="1">
          <mxGeometry width="43" height="20.001640557992015" as="geometry" />
        </mxCell>
        <mxCell id="RRfzHEm0QSZrdTFDj_sS-81" value="" style="group;fontSize=7;" vertex="1" connectable="0" parent="RRfzHEm0QSZrdTFDj_sS-86">
          <mxGeometry x="43" width="37" height="320" as="geometry" />
        </mxCell>
        <mxCell id="tiWv2YmoTtYMi_YgK9l2-1" value="ALU" style="rounded=0;whiteSpace=wrap;html=1;fontStyle=1;fontSize=7;fillColor=#7D4552;strokeColor=none;" parent="RRfzHEm0QSZrdTFDj_sS-81" vertex="1">
          <mxGeometry y="299.9977343712071" width="18.5" height="20.002265628792912" as="geometry" />
        </mxCell>
        <mxCell id="tiWv2YmoTtYMi_YgK9l2-2" value="ALU" style="rounded=0;whiteSpace=wrap;html=1;fontStyle=1;fontSize=7;fillColor=#7D4552;strokeColor=none;" parent="RRfzHEm0QSZrdTFDj_sS-81" vertex="1">
          <mxGeometry y="280.0006473225123" width="18.5" height="20.002265628792912" as="geometry" />
        </mxCell>
        <mxCell id="tiWv2YmoTtYMi_YgK9l2-8" value="CTL" style="rounded=0;whiteSpace=wrap;html=1;fontStyle=1;fontSize=7;fillColor=#206F8C;strokeColor=none;" parent="RRfzHEm0QSZrdTFDj_sS-81" vertex="1">
          <mxGeometry y="239.99611606492647" width="18.5" height="20.002265628792912" as="geometry" />
        </mxCell>
        <mxCell id="tiWv2YmoTtYMi_YgK9l2-20" value="INS" style="rounded=0;whiteSpace=wrap;html=1;fontStyle=1;fontSize=7;fillColor=#571F7D;strokeColor=none;" parent="RRfzHEm0QSZrdTFDj_sS-81" vertex="1">
          <mxGeometry y="219.99902901623167" width="18.5" height="20.002265628792912" as="geometry" />
        </mxCell>
        <mxCell id="tiWv2YmoTtYMi_YgK9l2-23" value="MDR" style="rounded=0;whiteSpace=wrap;html=1;fontStyle=1;fontSize=7;fillColor=#538C73;strokeColor=none;" parent="RRfzHEm0QSZrdTFDj_sS-81" vertex="1">
          <mxGeometry y="180.004854918842" width="18.5" height="20.002265628792912" as="geometry" />
        </mxCell>
        <mxCell id="tiWv2YmoTtYMi_YgK9l2-24" value="MDR" style="rounded=0;whiteSpace=wrap;html=1;fontStyle=1;fontSize=7;fillColor=#538C73;strokeColor=none;" parent="RRfzHEm0QSZrdTFDj_sS-81" vertex="1">
          <mxGeometry y="160.00776787014718" width="18.5" height="20.002265628792912" as="geometry" />
        </mxCell>
        <mxCell id="tiWv2YmoTtYMi_YgK9l2-25" value="REG" style="rounded=0;whiteSpace=wrap;html=1;fontStyle=1;fontSize=7;fillColor=#807C45;strokeColor=none;" parent="RRfzHEm0QSZrdTFDj_sS-81" vertex="1">
          <mxGeometry y="140.01068082145235" width="18.5" height="20.002265628792912" as="geometry" />
        </mxCell>
        <mxCell id="tiWv2YmoTtYMi_YgK9l2-26" value="REG" style="rounded=0;whiteSpace=wrap;html=1;fontStyle=1;fontSize=7;fillColor=#807C45;strokeColor=none;" parent="RRfzHEm0QSZrdTFDj_sS-81" vertex="1">
          <mxGeometry y="120.01359377275746" width="18.5" height="20.002265628792912" as="geometry" />
        </mxCell>
        <mxCell id="tiWv2YmoTtYMi_YgK9l2-27" value="ADR" style="rounded=0;whiteSpace=wrap;html=1;fontStyle=1;fontSize=7;fillColor=#00AB1C;strokeColor=none;" parent="RRfzHEm0QSZrdTFDj_sS-81" vertex="1">
          <mxGeometry y="200.00194196753694" width="18.5" height="20.002265628792912" as="geometry" />
        </mxCell>
        <mxCell id="tiWv2YmoTtYMi_YgK9l2-28" value="ADR" style="rounded=0;whiteSpace=wrap;html=1;fontStyle=1;fontSize=7;fillColor=#00AB1C;strokeColor=none;" parent="RRfzHEm0QSZrdTFDj_sS-81" vertex="1">
          <mxGeometry y="259.99320311362135" width="18.5" height="20.002265628792912" as="geometry" />
        </mxCell>
        <mxCell id="tiWv2YmoTtYMi_YgK9l2-29" value="REG" style="rounded=0;whiteSpace=wrap;html=1;fontStyle=1;fontSize=7;fillColor=#807C45;strokeColor=none;" parent="RRfzHEm0QSZrdTFDj_sS-81" vertex="1">
          <mxGeometry y="100.01650672406262" width="18.5" height="20.002265628792912" as="geometry" />
        </mxCell>
        <mxCell id="tiWv2YmoTtYMi_YgK9l2-30" value="ADR" style="rounded=0;whiteSpace=wrap;html=1;fontStyle=1;fontSize=7;fillColor=#00AB1C;strokeColor=none;" parent="RRfzHEm0QSZrdTFDj_sS-81" vertex="1">
          <mxGeometry y="80.00906251517165" width="18.5" height="20.002265628792912" as="geometry" />
        </mxCell>
        <mxCell id="tiWv2YmoTtYMi_YgK9l2-31" value="INS" style="rounded=0;whiteSpace=wrap;html=1;fontStyle=1;fontSize=7;fillColor=#571F7D;strokeColor=none;" parent="RRfzHEm0QSZrdTFDj_sS-81" vertex="1">
          <mxGeometry y="60.00161830628068" width="18.5" height="20.002265628792912" as="geometry" />
        </mxCell>
        <mxCell id="tiWv2YmoTtYMi_YgK9l2-32" value="ADR" style="rounded=0;whiteSpace=wrap;html=1;fontStyle=1;fontSize=7;fillColor=#00AB1C;strokeColor=none;" parent="RRfzHEm0QSZrdTFDj_sS-81" vertex="1">
          <mxGeometry y="40.00453125758583" width="18.5" height="20.002265628792912" as="geometry" />
        </mxCell>
        <mxCell id="tiWv2YmoTtYMi_YgK9l2-35" value="ALU" style="rounded=0;whiteSpace=wrap;html=1;fontStyle=1;fontSize=7;fillColor=#7D4552;strokeColor=none;" parent="RRfzHEm0QSZrdTFDj_sS-81" vertex="1">
          <mxGeometry y="19.997087048694848" width="18.5" height="20.002265628792912" as="geometry" />
        </mxCell>
        <mxCell id="tiWv2YmoTtYMi_YgK9l2-36" value="ALU" style="rounded=0;whiteSpace=wrap;html=1;fontStyle=1;fontSize=7;fillColor=#7D4552;strokeColor=none;" parent="RRfzHEm0QSZrdTFDj_sS-81" vertex="1">
          <mxGeometry width="18.5" height="20.002265628792912" as="geometry" />
        </mxCell>
        <mxCell id="tiWv2YmoTtYMi_YgK9l2-44" value="N" style="rounded=0;whiteSpace=wrap;html=1;fontStyle=1;fontSize=7;fillColor=#7D1212;strokeColor=none;" parent="RRfzHEm0QSZrdTFDj_sS-81" vertex="1">
          <mxGeometry x="18.5" y="180.004854918842" width="9.25" height="20.002265628792912" as="geometry" />
        </mxCell>
        <mxCell id="tiWv2YmoTtYMi_YgK9l2-45" value="N" style="rounded=0;whiteSpace=wrap;html=1;fontStyle=1;fontSize=7;fillColor=#7D1212;strokeColor=none;" parent="RRfzHEm0QSZrdTFDj_sS-81" vertex="1">
          <mxGeometry x="18.5" y="160.00776787014718" width="9.25" height="20.002265628792912" as="geometry" />
        </mxCell>
        <mxCell id="tiWv2YmoTtYMi_YgK9l2-46" value="N" style="rounded=0;whiteSpace=wrap;html=1;fontStyle=1;fontSize=7;fillColor=#7D1212;strokeColor=none;" parent="RRfzHEm0QSZrdTFDj_sS-81" vertex="1">
          <mxGeometry x="18.5" y="140.01068082145235" width="9.25" height="20.002265628792912" as="geometry" />
        </mxCell>
        <mxCell id="tiWv2YmoTtYMi_YgK9l2-47" value="N" style="rounded=0;whiteSpace=wrap;html=1;fontStyle=1;fontSize=7;fillColor=#7D1212;strokeColor=none;" parent="RRfzHEm0QSZrdTFDj_sS-81" vertex="1">
          <mxGeometry x="18.5" y="120.01359377275746" width="9.25" height="20.002265628792912" as="geometry" />
        </mxCell>
        <mxCell id="tiWv2YmoTtYMi_YgK9l2-48" value="N" style="rounded=0;whiteSpace=wrap;html=1;fontStyle=1;fontSize=7;fillColor=#7D1212;strokeColor=none;" parent="RRfzHEm0QSZrdTFDj_sS-81" vertex="1">
          <mxGeometry x="18.5" y="100.01650672406262" width="9.25" height="20.002265628792912" as="geometry" />
        </mxCell>
        <mxCell id="tiWv2YmoTtYMi_YgK9l2-49" value="N" style="rounded=0;whiteSpace=wrap;html=1;fontStyle=1;fontSize=7;fillColor=#7D1212;strokeColor=none;" parent="RRfzHEm0QSZrdTFDj_sS-81" vertex="1">
          <mxGeometry x="18.5" y="80.00906251517165" width="9.25" height="20.002265628792912" as="geometry" />
        </mxCell>
        <mxCell id="tiWv2YmoTtYMi_YgK9l2-50" value="N" style="rounded=0;whiteSpace=wrap;html=1;fontStyle=1;fontSize=7;fillColor=#7D1212;strokeColor=none;" parent="RRfzHEm0QSZrdTFDj_sS-81" vertex="1">
          <mxGeometry x="18.5" y="60.00161830628068" width="9.25" height="20.002265628792912" as="geometry" />
        </mxCell>
        <mxCell id="tiWv2YmoTtYMi_YgK9l2-51" value="N" style="rounded=0;whiteSpace=wrap;html=1;fontStyle=1;fontSize=7;fillColor=#7D1212;strokeColor=none;" parent="RRfzHEm0QSZrdTFDj_sS-81" vertex="1">
          <mxGeometry x="18.5" y="40.00453125758583" width="9.25" height="20.002265628792912" as="geometry" />
        </mxCell>
        <mxCell id="tiWv2YmoTtYMi_YgK9l2-52" value="N" style="rounded=0;whiteSpace=wrap;html=1;fontStyle=1;fontSize=7;fillColor=#7D1212;strokeColor=none;" parent="RRfzHEm0QSZrdTFDj_sS-81" vertex="1">
          <mxGeometry x="18.5" y="19.997087048694848" width="9.25" height="20.002265628792912" as="geometry" />
        </mxCell>
        <mxCell id="tiWv2YmoTtYMi_YgK9l2-53" value="N" style="rounded=0;whiteSpace=wrap;html=1;fontStyle=1;fontSize=7;fillColor=#7D1212;strokeColor=none;" parent="RRfzHEm0QSZrdTFDj_sS-81" vertex="1">
          <mxGeometry x="18.5" width="9.25" height="20.002265628792912" as="geometry" />
        </mxCell>
        <mxCell id="tiWv2YmoTtYMi_YgK9l2-54" value="" style="rounded=0;whiteSpace=wrap;html=1;fontStyle=1;fontSize=7;fillColor=#4D4D4D;strokeColor=none;" parent="RRfzHEm0QSZrdTFDj_sS-81" vertex="1">
          <mxGeometry x="18.5" y="200.00194196753694" width="9.25" height="20.002265628792912" as="geometry" />
        </mxCell>
        <mxCell id="tiWv2YmoTtYMi_YgK9l2-55" value="" style="rounded=0;whiteSpace=wrap;html=1;fontStyle=1;fontSize=7;fillColor=#4D4D4D;strokeColor=none;" parent="RRfzHEm0QSZrdTFDj_sS-81" vertex="1">
          <mxGeometry x="18.5" y="219.99902901623167" width="9.25" height="20.002265628792912" as="geometry" />
        </mxCell>
        <mxCell id="tiWv2YmoTtYMi_YgK9l2-56" value="" style="rounded=0;whiteSpace=wrap;html=1;fontStyle=1;fontSize=7;fillColor=#4D4D4D;strokeColor=none;" parent="RRfzHEm0QSZrdTFDj_sS-81" vertex="1">
          <mxGeometry x="18.5" y="239.99611606492647" width="9.25" height="20.002265628792912" as="geometry" />
        </mxCell>
        <mxCell id="tiWv2YmoTtYMi_YgK9l2-60" value="" style="rounded=0;whiteSpace=wrap;html=1;fontStyle=1;fontSize=7;fillColor=#4D4D4D;strokeColor=none;" parent="RRfzHEm0QSZrdTFDj_sS-81" vertex="1">
          <mxGeometry x="18.5" y="259.99320311362135" width="9.25" height="20.002265628792912" as="geometry" />
        </mxCell>
        <mxCell id="tiWv2YmoTtYMi_YgK9l2-61" value="" style="rounded=0;whiteSpace=wrap;html=1;fontStyle=1;fontSize=7;fillColor=#4D4D4D;strokeColor=none;" parent="RRfzHEm0QSZrdTFDj_sS-81" vertex="1">
          <mxGeometry x="18.5" y="280.0006473225123" width="9.25" height="20.002265628792912" as="geometry" />
        </mxCell>
        <mxCell id="tiWv2YmoTtYMi_YgK9l2-62" value="" style="rounded=0;whiteSpace=wrap;html=1;fontStyle=1;fontSize=7;fillColor=#4D4D4D;strokeColor=none;" parent="RRfzHEm0QSZrdTFDj_sS-81" vertex="1">
          <mxGeometry x="18.5" y="299.9977343712071" width="9.25" height="20.002265628792912" as="geometry" />
        </mxCell>
        <mxCell id="tiWv2YmoTtYMi_YgK9l2-65" value="S" style="rounded=0;whiteSpace=wrap;html=1;fontStyle=1;fontSize=7;fillColor=#426B5C;strokeColor=none;" parent="RRfzHEm0QSZrdTFDj_sS-81" vertex="1">
          <mxGeometry x="27.750000000000004" y="299.9977343712071" width="9.25" height="20.002265628792912" as="geometry" />
        </mxCell>
        <mxCell id="tiWv2YmoTtYMi_YgK9l2-66" value="S" style="rounded=0;whiteSpace=wrap;html=1;fontStyle=1;fontSize=7;fillColor=#426B5C;strokeColor=none;" parent="RRfzHEm0QSZrdTFDj_sS-81" vertex="1">
          <mxGeometry x="27.750000000000004" y="280.0006473225123" width="9.25" height="20.002265628792912" as="geometry" />
        </mxCell>
        <mxCell id="tiWv2YmoTtYMi_YgK9l2-67" value="S" style="rounded=0;whiteSpace=wrap;html=1;fontStyle=1;fontSize=7;fillColor=#426B5C;strokeColor=none;" parent="RRfzHEm0QSZrdTFDj_sS-81" vertex="1">
          <mxGeometry x="27.750000000000004" y="259.99320311362135" width="9.25" height="20.002265628792912" as="geometry" />
        </mxCell>
        <mxCell id="tiWv2YmoTtYMi_YgK9l2-68" value="S" style="rounded=0;whiteSpace=wrap;html=1;fontStyle=1;fontSize=7;fillColor=#426B5C;strokeColor=none;" parent="RRfzHEm0QSZrdTFDj_sS-81" vertex="1">
          <mxGeometry x="27.750000000000004" y="239.99611606492647" width="9.25" height="20.002265628792912" as="geometry" />
        </mxCell>
        <mxCell id="tiWv2YmoTtYMi_YgK9l2-69" value="S" style="rounded=0;whiteSpace=wrap;html=1;fontStyle=1;fontSize=7;fillColor=#426B5C;strokeColor=none;" parent="RRfzHEm0QSZrdTFDj_sS-81" vertex="1">
          <mxGeometry x="27.750000000000004" y="219.99902901623167" width="9.25" height="20.002265628792912" as="geometry" />
        </mxCell>
        <mxCell id="tiWv2YmoTtYMi_YgK9l2-70" value="S" style="rounded=0;whiteSpace=wrap;html=1;fontStyle=1;fontSize=7;fillColor=#426B5C;strokeColor=none;" parent="RRfzHEm0QSZrdTFDj_sS-81" vertex="1">
          <mxGeometry x="27.750000000000004" y="200.00194196753694" width="9.25" height="20.002265628792912" as="geometry" />
        </mxCell>
        <mxCell id="tiWv2YmoTtYMi_YgK9l2-71" value="S" style="rounded=0;whiteSpace=wrap;html=1;fontStyle=1;fontSize=7;fillColor=#426B5C;strokeColor=none;" parent="RRfzHEm0QSZrdTFDj_sS-81" vertex="1">
          <mxGeometry x="27.750000000000004" y="180.004854918842" width="9.25" height="20.002265628792912" as="geometry" />
        </mxCell>
        <mxCell id="tiWv2YmoTtYMi_YgK9l2-72" value="S" style="rounded=0;whiteSpace=wrap;html=1;fontStyle=1;fontSize=7;fillColor=#426B5C;strokeColor=none;" parent="RRfzHEm0QSZrdTFDj_sS-81" vertex="1">
          <mxGeometry x="27.750000000000004" y="160.00776787014718" width="9.25" height="20.002265628792912" as="geometry" />
        </mxCell>
        <mxCell id="tiWv2YmoTtYMi_YgK9l2-73" value="S" style="rounded=0;whiteSpace=wrap;html=1;fontStyle=1;fontSize=7;fillColor=#426B5C;strokeColor=none;" parent="RRfzHEm0QSZrdTFDj_sS-81" vertex="1">
          <mxGeometry x="27.750000000000004" y="140.01068082145235" width="9.25" height="20.002265628792912" as="geometry" />
        </mxCell>
        <mxCell id="tiWv2YmoTtYMi_YgK9l2-74" value="S" style="rounded=0;whiteSpace=wrap;html=1;fontStyle=1;fontSize=7;fillColor=#426B5C;strokeColor=none;" parent="RRfzHEm0QSZrdTFDj_sS-81" vertex="1">
          <mxGeometry x="27.750000000000004" y="120.01359377275746" width="9.25" height="20.002265628792912" as="geometry" />
        </mxCell>
        <mxCell id="tiWv2YmoTtYMi_YgK9l2-75" value="S" style="rounded=0;whiteSpace=wrap;html=1;fontStyle=1;fontSize=7;fillColor=#426B5C;strokeColor=none;" parent="RRfzHEm0QSZrdTFDj_sS-81" vertex="1">
          <mxGeometry x="27.750000000000004" y="100.01650672406262" width="9.25" height="20.002265628792912" as="geometry" />
        </mxCell>
        <mxCell id="tiWv2YmoTtYMi_YgK9l2-76" value="S" style="rounded=0;whiteSpace=wrap;html=1;fontStyle=1;fontSize=7;fillColor=#426B5C;strokeColor=none;" parent="RRfzHEm0QSZrdTFDj_sS-81" vertex="1">
          <mxGeometry x="27.750000000000004" y="80.00906251517165" width="9.25" height="20.002265628792912" as="geometry" />
        </mxCell>
        <mxCell id="tiWv2YmoTtYMi_YgK9l2-77" value="S" style="rounded=0;whiteSpace=wrap;html=1;fontStyle=1;fontSize=7;fillColor=#426B5C;strokeColor=none;" parent="RRfzHEm0QSZrdTFDj_sS-81" vertex="1">
          <mxGeometry x="27.750000000000004" y="60.00161830628068" width="9.25" height="20.002265628792912" as="geometry" />
        </mxCell>
        <mxCell id="tiWv2YmoTtYMi_YgK9l2-78" value="S" style="rounded=0;whiteSpace=wrap;html=1;fontStyle=1;fontSize=7;fillColor=#426B5C;strokeColor=none;" parent="RRfzHEm0QSZrdTFDj_sS-81" vertex="1">
          <mxGeometry x="27.750000000000004" y="40.00453125758583" width="9.25" height="20.002265628792912" as="geometry" />
        </mxCell>
        <mxCell id="tiWv2YmoTtYMi_YgK9l2-79" value="S" style="rounded=0;whiteSpace=wrap;html=1;fontStyle=1;fontSize=7;fillColor=#426B5C;strokeColor=none;" parent="RRfzHEm0QSZrdTFDj_sS-81" vertex="1">
          <mxGeometry x="27.750000000000004" y="19.997087048694848" width="9.25" height="20.002265628792912" as="geometry" />
        </mxCell>
        <mxCell id="tiWv2YmoTtYMi_YgK9l2-80" value="S" style="rounded=0;whiteSpace=wrap;html=1;fontStyle=1;fontSize=7;fillColor=#426B5C;strokeColor=none;" parent="RRfzHEm0QSZrdTFDj_sS-81" vertex="1">
          <mxGeometry x="27.750000000000004" width="9.25" height="20.002265628792912" as="geometry" />
        </mxCell>
        <mxCell id="tiWv2YmoTtYMi_YgK9l2-38" value="ALU" style="rounded=0;whiteSpace=wrap;html=1;fontStyle=1;fontSize=7;fillColor=#7D4552;strokeColor=none;" parent="1" vertex="1">
          <mxGeometry x="959.8726923076923" y="678.96" width="19.872692307692297" height="20.000000000000004" as="geometry" />
        </mxCell>
        <mxCell id="tiWv2YmoTtYMi_YgK9l2-41" value="RPC" style="rounded=0;whiteSpace=wrap;html=1;fontStyle=1;fontSize=7;fillColor=#AD3DAD;strokeColor=none;" parent="1" vertex="1">
          <mxGeometry x="959.8726923076923" y="658.96" width="19.872692307692297" height="20.000000000000004" as="geometry" />
        </mxCell>
        <mxCell id="tiWv2YmoTtYMi_YgK9l2-63" value="N" style="rounded=0;whiteSpace=wrap;html=1;fontStyle=1;fontSize=7;fillColor=#7D1212;strokeColor=none;" parent="1" vertex="1">
          <mxGeometry x="949.9363461538461" y="678.96" width="9.936346153846149" height="20.000000000000004" as="geometry" />
        </mxCell>
        <mxCell id="tiWv2YmoTtYMi_YgK9l2-64" value="N" style="rounded=0;whiteSpace=wrap;html=1;fontStyle=1;fontSize=7;fillColor=#7D1212;strokeColor=none;" parent="1" vertex="1">
          <mxGeometry x="949.9363461538461" y="658.96" width="9.936346153846149" height="20.000000000000004" as="geometry" />
        </mxCell>
        <mxCell id="tiWv2YmoTtYMi_YgK9l2-81" value="S" style="rounded=0;whiteSpace=wrap;html=1;fontStyle=1;fontSize=7;fillColor=#426B5C;strokeColor=none;" parent="1" vertex="1">
          <mxGeometry x="940" y="678.96" width="9.936346153846149" height="20.000000000000004" as="geometry" />
        </mxCell>
        <mxCell id="tiWv2YmoTtYMi_YgK9l2-83" value="D" style="rounded=0;whiteSpace=wrap;html=1;fontStyle=1;fontSize=7;fillColor=#7D1212;strokeColor=none;" parent="1" vertex="1">
          <mxGeometry x="940" y="658.96" width="9.936346153846149" height="20.000000000000004" as="geometry" />
        </mxCell>
        <mxCell id="tiWv2YmoTtYMi_YgK9l2-85" value="RPC" style="rounded=0;whiteSpace=wrap;html=1;fontStyle=1;fontSize=7;fillColor=#AD3DAD;strokeColor=none;" parent="1" vertex="1">
          <mxGeometry x="959.8726923076923" y="638.96" width="19.872692307692297" height="20.000000000000004" as="geometry" />
        </mxCell>
        <mxCell id="tiWv2YmoTtYMi_YgK9l2-86" value="N" style="rounded=0;whiteSpace=wrap;html=1;fontStyle=1;fontSize=7;fillColor=#7D1212;strokeColor=none;" parent="1" vertex="1">
          <mxGeometry x="949.9363461538461" y="638.96" width="9.936346153846149" height="20.000000000000004" as="geometry" />
        </mxCell>
        <mxCell id="tiWv2YmoTtYMi_YgK9l2-87" value="D" style="rounded=0;whiteSpace=wrap;html=1;fontStyle=1;fontSize=7;fillColor=#7D1212;strokeColor=none;" parent="1" vertex="1">
          <mxGeometry x="940" y="638.96" width="9.936346153846149" height="20.000000000000004" as="geometry" />
        </mxCell>
        <mxCell id="tiWv2YmoTtYMi_YgK9l2-89" value="WRT" style="rounded=0;whiteSpace=wrap;html=1;fontStyle=1;fontSize=7;fillColor=#3646AD;strokeColor=none;" parent="1" vertex="1">
          <mxGeometry x="959.8726923076923" y="618.96" width="19.872692307692297" height="20.000000000000004" as="geometry" />
        </mxCell>
        <mxCell id="tiWv2YmoTtYMi_YgK9l2-90" value="N" style="rounded=0;whiteSpace=wrap;html=1;fontStyle=1;fontSize=7;fillColor=#7D1212;strokeColor=none;" parent="1" vertex="1">
          <mxGeometry x="949.9363461538461" y="618.96" width="9.936346153846149" height="20.000000000000004" as="geometry" />
        </mxCell>
        <mxCell id="tiWv2YmoTtYMi_YgK9l2-91" value="D" style="rounded=0;whiteSpace=wrap;html=1;fontStyle=1;fontSize=7;fillColor=#7D1212;strokeColor=none;" parent="1" vertex="1">
          <mxGeometry x="940" y="618.96" width="9.936346153846149" height="20.000000000000004" as="geometry" />
        </mxCell>
        <mxCell id="tiWv2YmoTtYMi_YgK9l2-93" value="WRT" style="rounded=0;whiteSpace=wrap;html=1;fontStyle=1;fontSize=7;fillColor=#3646AD;strokeColor=none;" parent="1" vertex="1">
          <mxGeometry x="959.8726923076923" y="598.96" width="19.872692307692297" height="20.000000000000004" as="geometry" />
        </mxCell>
        <mxCell id="tiWv2YmoTtYMi_YgK9l2-95" value="D" style="rounded=0;whiteSpace=wrap;html=1;fontStyle=1;fontSize=7;fillColor=#7D1212;strokeColor=none;" parent="1" vertex="1">
          <mxGeometry x="940" y="598.96" width="9.936346153846149" height="20.000000000000004" as="geometry" />
        </mxCell>
        <mxCell id="tiWv2YmoTtYMi_YgK9l2-96" value="" style="rounded=0;whiteSpace=wrap;html=1;fontStyle=1;fontSize=7;fillColor=#4D4D4D;strokeColor=none;" parent="1" vertex="1">
          <mxGeometry x="949.9363461538461" y="598.96" width="9.936346153846149" height="20.000000000000004" as="geometry" />
        </mxCell>
        <mxCell id="tiWv2YmoTtYMi_YgK9l2-102" value="WRT" style="rounded=0;whiteSpace=wrap;html=1;fontStyle=1;fontSize=7;fillColor=#3646AD;strokeColor=none;" parent="1" vertex="1">
          <mxGeometry x="959.8726923076923" y="578.9599999999998" width="19.872692307692297" height="20.000000000000004" as="geometry" />
        </mxCell>
        <mxCell id="tiWv2YmoTtYMi_YgK9l2-103" value="D" style="rounded=0;whiteSpace=wrap;html=1;fontStyle=1;fontSize=7;fillColor=#7D1212;strokeColor=none;" parent="1" vertex="1">
          <mxGeometry x="940" y="578.9599999999998" width="9.936346153846149" height="20.000000000000004" as="geometry" />
        </mxCell>
        <mxCell id="tiWv2YmoTtYMi_YgK9l2-104" value="" style="rounded=0;whiteSpace=wrap;html=1;fontStyle=1;fontSize=7;fillColor=#4D4D4D;strokeColor=none;" parent="1" vertex="1">
          <mxGeometry x="949.9363461538461" y="578.9599999999998" width="9.936346153846149" height="20.000000000000004" as="geometry" />
        </mxCell>
        <mxCell id="tiWv2YmoTtYMi_YgK9l2-106" value="SEL" style="rounded=0;whiteSpace=wrap;html=1;fontStyle=1;fontSize=7;fillColor=#497EAD;strokeColor=none;gradientColor=none;" parent="1" vertex="1">
          <mxGeometry x="959.8726923076923" y="558.96" width="19.872692307692297" height="20.000000000000004" as="geometry" />
        </mxCell>
        <mxCell id="tiWv2YmoTtYMi_YgK9l2-107" value="D" style="rounded=0;whiteSpace=wrap;html=1;fontStyle=1;fontSize=7;fillColor=#7D1212;strokeColor=none;" parent="1" vertex="1">
          <mxGeometry x="940" y="558.96" width="9.936346153846149" height="20.000000000000004" as="geometry" />
        </mxCell>
        <mxCell id="tiWv2YmoTtYMi_YgK9l2-108" value="" style="rounded=0;whiteSpace=wrap;html=1;fontStyle=1;fontSize=7;fillColor=#4D4D4D;strokeColor=none;" parent="1" vertex="1">
          <mxGeometry x="949.9363461538461" y="558.96" width="9.936346153846149" height="20.000000000000004" as="geometry" />
        </mxCell>
        <mxCell id="tiWv2YmoTtYMi_YgK9l2-110" value="SEL" style="rounded=0;whiteSpace=wrap;html=1;fontStyle=1;fontSize=7;fillColor=#497EAD;strokeColor=none;gradientColor=none;" parent="1" vertex="1">
          <mxGeometry x="959.8726923076923" y="538.9599999999999" width="19.872692307692297" height="20.000000000000004" as="geometry" />
        </mxCell>
        <mxCell id="tiWv2YmoTtYMi_YgK9l2-111" value="D" style="rounded=0;whiteSpace=wrap;html=1;fontStyle=1;fontSize=7;fillColor=#7D1212;strokeColor=none;" parent="1" vertex="1">
          <mxGeometry x="940" y="538.9599999999999" width="9.936346153846149" height="20.000000000000004" as="geometry" />
        </mxCell>
        <mxCell id="tiWv2YmoTtYMi_YgK9l2-112" value="" style="rounded=0;whiteSpace=wrap;html=1;fontStyle=1;fontSize=7;fillColor=#4D4D4D;strokeColor=none;" parent="1" vertex="1">
          <mxGeometry x="949.9363461538461" y="538.9599999999999" width="9.936346153846149" height="20.000000000000004" as="geometry" />
        </mxCell>
        <mxCell id="tiWv2YmoTtYMi_YgK9l2-114" value="WRT" style="rounded=0;whiteSpace=wrap;html=1;fontStyle=1;fontSize=7;fillColor=#3646AD;strokeColor=none;" parent="1" vertex="1">
          <mxGeometry x="959.8726923076923" y="518.96" width="19.872692307692297" height="20.000000000000004" as="geometry" />
        </mxCell>
        <mxCell id="tiWv2YmoTtYMi_YgK9l2-115" value="D" style="rounded=0;whiteSpace=wrap;html=1;fontStyle=1;fontSize=7;fillColor=#7D1212;strokeColor=none;" parent="1" vertex="1">
          <mxGeometry x="940" y="518.96" width="9.936346153846149" height="20.000000000000004" as="geometry" />
        </mxCell>
        <mxCell id="tiWv2YmoTtYMi_YgK9l2-116" value="" style="rounded=0;whiteSpace=wrap;html=1;fontStyle=1;fontSize=7;fillColor=#4D4D4D;strokeColor=none;" parent="1" vertex="1">
          <mxGeometry x="949.9363461538461" y="518.96" width="9.936346153846149" height="20.000000000000004" as="geometry" />
        </mxCell>
        <mxCell id="tiWv2YmoTtYMi_YgK9l2-118" value="WRT" style="rounded=0;whiteSpace=wrap;html=1;fontStyle=1;fontSize=7;fillColor=#3646AD;strokeColor=none;" parent="1" vertex="1">
          <mxGeometry x="959.8726923076923" y="498.9599999999999" width="19.872692307692297" height="20.000000000000004" as="geometry" />
        </mxCell>
        <mxCell id="tiWv2YmoTtYMi_YgK9l2-119" value="D" style="rounded=0;whiteSpace=wrap;html=1;fontStyle=1;fontSize=7;fillColor=#7D1212;strokeColor=none;" parent="1" vertex="1">
          <mxGeometry x="940" y="498.9599999999999" width="9.936346153846149" height="20.000000000000004" as="geometry" />
        </mxCell>
        <mxCell id="tiWv2YmoTtYMi_YgK9l2-120" value="" style="rounded=0;whiteSpace=wrap;html=1;fontStyle=1;fontSize=7;fillColor=#4D4D4D;strokeColor=none;" parent="1" vertex="1">
          <mxGeometry x="949.9363461538461" y="498.9599999999999" width="9.936346153846149" height="20.000000000000004" as="geometry" />
        </mxCell>
        <mxCell id="tiWv2YmoTtYMi_YgK9l2-122" value="WRT" style="rounded=0;whiteSpace=wrap;html=1;fontStyle=1;fontSize=7;fillColor=#3646AD;strokeColor=none;" parent="1" vertex="1">
          <mxGeometry x="959.8726923076923" y="478.96000000000004" width="19.872692307692297" height="20.000000000000004" as="geometry" />
        </mxCell>
        <mxCell id="tiWv2YmoTtYMi_YgK9l2-123" value="D" style="rounded=0;whiteSpace=wrap;html=1;fontStyle=1;fontSize=7;fillColor=#7D1212;strokeColor=none;" parent="1" vertex="1">
          <mxGeometry x="940" y="478.96000000000004" width="9.936346153846149" height="20.000000000000004" as="geometry" />
        </mxCell>
        <mxCell id="tiWv2YmoTtYMi_YgK9l2-124" value="" style="rounded=0;whiteSpace=wrap;html=1;fontStyle=1;fontSize=7;fillColor=#4D4D4D;strokeColor=none;" parent="1" vertex="1">
          <mxGeometry x="949.9363461538461" y="478.96000000000004" width="9.936346153846149" height="20.000000000000004" as="geometry" />
        </mxCell>
        <mxCell id="tiWv2YmoTtYMi_YgK9l2-126" value="WRT" style="rounded=0;whiteSpace=wrap;html=1;fontStyle=1;fontSize=7;fillColor=#3646AD;strokeColor=none;" parent="1" vertex="1">
          <mxGeometry x="959.8726923076923" y="458.9599999999999" width="19.872692307692297" height="20.000000000000004" as="geometry" />
        </mxCell>
        <mxCell id="tiWv2YmoTtYMi_YgK9l2-127" value="D" style="rounded=0;whiteSpace=wrap;html=1;fontStyle=1;fontSize=7;fillColor=#7D1212;strokeColor=none;" parent="1" vertex="1">
          <mxGeometry x="940" y="458.9599999999999" width="9.936346153846149" height="20.000000000000004" as="geometry" />
        </mxCell>
        <mxCell id="tiWv2YmoTtYMi_YgK9l2-128" value="" style="rounded=0;whiteSpace=wrap;html=1;fontStyle=1;fontSize=7;fillColor=#4D4D4D;strokeColor=none;" parent="1" vertex="1">
          <mxGeometry x="949.9363461538461" y="458.9599999999999" width="9.936346153846149" height="20.000000000000004" as="geometry" />
        </mxCell>
        <mxCell id="tiWv2YmoTtYMi_YgK9l2-129" value="ALU" style="rounded=0;whiteSpace=wrap;html=1;fontStyle=1;fontSize=7;fillColor=#7D4552;strokeColor=none;" parent="1" vertex="1">
          <mxGeometry x="959.8726923076923" y="438.96000000000004" width="19.872692307692297" height="20.000000000000004" as="geometry" />
        </mxCell>
        <mxCell id="tiWv2YmoTtYMi_YgK9l2-133" value="D" style="rounded=0;whiteSpace=wrap;html=1;fontStyle=1;fontSize=7;fillColor=#7D1212;strokeColor=none;" parent="1" vertex="1">
          <mxGeometry x="940" y="438.96000000000004" width="9.936346153846149" height="20.000000000000004" as="geometry" />
        </mxCell>
        <mxCell id="tiWv2YmoTtYMi_YgK9l2-134" value="" style="rounded=0;whiteSpace=wrap;html=1;fontStyle=1;fontSize=7;fillColor=#4D4D4D;strokeColor=none;" parent="1" vertex="1">
          <mxGeometry x="949.9363461538461" y="438.96000000000004" width="9.936346153846149" height="20.000000000000004" as="geometry" />
        </mxCell>
        <mxCell id="tiWv2YmoTtYMi_YgK9l2-136" value="RPC" style="rounded=0;whiteSpace=wrap;html=1;fontStyle=1;fontSize=7;fillColor=#AD3DAD;strokeColor=none;" parent="1" vertex="1">
          <mxGeometry x="959.8726923076923" y="418.96" width="19.872692307692297" height="20.000000000000004" as="geometry" />
        </mxCell>
        <mxCell id="tiWv2YmoTtYMi_YgK9l2-138" value="D" style="rounded=0;whiteSpace=wrap;html=1;fontStyle=1;fontSize=7;fillColor=#7D1212;strokeColor=none;" parent="1" vertex="1">
          <mxGeometry x="940" y="418.96" width="9.936346153846149" height="20.000000000000004" as="geometry" />
        </mxCell>
        <mxCell id="tiWv2YmoTtYMi_YgK9l2-139" value="" style="rounded=0;whiteSpace=wrap;html=1;fontStyle=1;fontSize=7;fillColor=#4D4D4D;strokeColor=none;" parent="1" vertex="1">
          <mxGeometry x="949.9363461538461" y="418.96" width="9.936346153846149" height="20.000000000000004" as="geometry" />
        </mxCell>
        <mxCell id="tiWv2YmoTtYMi_YgK9l2-141" value="RPC" style="rounded=0;whiteSpace=wrap;html=1;fontStyle=1;fontSize=7;fillColor=#AD3DAD;strokeColor=none;" parent="1" vertex="1">
          <mxGeometry x="959.8726923076923" y="398.96" width="19.872692307692297" height="20.000000000000004" as="geometry" />
        </mxCell>
        <mxCell id="tiWv2YmoTtYMi_YgK9l2-142" value="D" style="rounded=0;whiteSpace=wrap;html=1;fontStyle=1;fontSize=7;fillColor=#7D1212;strokeColor=none;" parent="1" vertex="1">
          <mxGeometry x="940" y="398.96" width="9.936346153846149" height="20.000000000000004" as="geometry" />
        </mxCell>
        <mxCell id="tiWv2YmoTtYMi_YgK9l2-143" value="" style="rounded=0;whiteSpace=wrap;html=1;fontStyle=1;fontSize=7;fillColor=#4D4D4D;strokeColor=none;" parent="1" vertex="1">
          <mxGeometry x="949.9363461538461" y="398.96" width="9.936346153846149" height="20.000000000000004" as="geometry" />
        </mxCell>
        <mxCell id="tiWv2YmoTtYMi_YgK9l2-145" value="WRT" style="rounded=0;whiteSpace=wrap;html=1;fontStyle=1;fontSize=7;fillColor=#3646AD;strokeColor=none;" parent="1" vertex="1">
          <mxGeometry x="959.8726923076923" y="378.96000000000004" width="19.872692307692297" height="20.000000000000004" as="geometry" />
        </mxCell>
        <mxCell id="tiWv2YmoTtYMi_YgK9l2-146" value="D" style="rounded=0;whiteSpace=wrap;html=1;fontStyle=1;fontSize=7;fillColor=#7D1212;strokeColor=none;" parent="1" vertex="1">
          <mxGeometry x="940" y="378.96000000000004" width="9.936346153846149" height="20.000000000000004" as="geometry" />
        </mxCell>
        <mxCell id="tiWv2YmoTtYMi_YgK9l2-147" value="" style="rounded=0;whiteSpace=wrap;html=1;fontStyle=1;fontSize=7;fillColor=#4D4D4D;strokeColor=none;" parent="1" vertex="1">
          <mxGeometry x="949.9363461538461" y="378.96000000000004" width="9.936346153846149" height="20.000000000000004" as="geometry" />
        </mxCell>
        <mxCell id="tiWv2YmoTtYMi_YgK9l2-149" value="WRT" style="rounded=0;whiteSpace=wrap;html=1;fontStyle=1;fontSize=7;fillColor=#3646AD;strokeColor=none;" parent="1" vertex="1">
          <mxGeometry x="959.8726923076923" y="358.96" width="19.872692307692297" height="20.000000000000004" as="geometry" />
        </mxCell>
        <mxCell id="tiWv2YmoTtYMi_YgK9l2-150" value="D" style="rounded=0;whiteSpace=wrap;html=1;fontStyle=1;fontSize=7;fillColor=#7D1212;strokeColor=none;" parent="1" vertex="1">
          <mxGeometry x="940" y="358.96" width="9.936346153846149" height="20.000000000000004" as="geometry" />
        </mxCell>
        <mxCell id="tiWv2YmoTtYMi_YgK9l2-151" value="" style="rounded=0;whiteSpace=wrap;html=1;fontStyle=1;fontSize=7;fillColor=#4D4D4D;strokeColor=none;" parent="1" vertex="1">
          <mxGeometry x="949.9363461538461" y="358.96" width="9.936346153846149" height="20.000000000000004" as="geometry" />
        </mxCell>
        <mxCell id="RRfzHEm0QSZrdTFDj_sS-84" value="" style="group" vertex="1" connectable="0" parent="1">
          <mxGeometry x="979.7453846153846" y="358.96" width="50.25461538461536" height="339.99999999999994" as="geometry" />
        </mxCell>
        <mxCell id="tiWv2YmoTtYMi_YgK9l2-39" value="ResultOut" style="rounded=0;whiteSpace=wrap;html=1;strokeColor=none;fillColor=#242424;fontStyle=1;align=left;fontSize=7;" parent="RRfzHEm0QSZrdTFDj_sS-84" vertex="1">
          <mxGeometry y="320" width="50.25461538461538" height="20.000000000000004" as="geometry" />
        </mxCell>
        <mxCell id="tiWv2YmoTtYMi_YgK9l2-40" value="MemAdder" style="rounded=0;whiteSpace=wrap;html=1;strokeColor=none;fillColor=#242424;fontStyle=1;align=left;fontSize=7;" parent="RRfzHEm0QSZrdTFDj_sS-84" vertex="1">
          <mxGeometry y="300.00000000000006" width="50.25461538461538" height="20.000000000000004" as="geometry" />
        </mxCell>
        <mxCell id="tiWv2YmoTtYMi_YgK9l2-84" value="Registers" style="rounded=0;whiteSpace=wrap;html=1;strokeColor=none;fillColor=#242424;fontStyle=1;align=left;fontSize=7;" parent="RRfzHEm0QSZrdTFDj_sS-84" vertex="1">
          <mxGeometry y="280" width="50.25461538461538" height="20.000000000000004" as="geometry" />
        </mxCell>
        <mxCell id="tiWv2YmoTtYMi_YgK9l2-88" value="SRAM" style="rounded=0;whiteSpace=wrap;html=1;strokeColor=none;fillColor=#242424;fontStyle=1;align=left;fontSize=7;" parent="RRfzHEm0QSZrdTFDj_sS-84" vertex="1">
          <mxGeometry y="259.99999999999994" width="50.25461538461538" height="20.000000000000004" as="geometry" />
        </mxCell>
        <mxCell id="tiWv2YmoTtYMi_YgK9l2-92" value="RegOutput" style="rounded=0;whiteSpace=wrap;html=1;strokeColor=none;fillColor=#242424;fontStyle=1;align=left;fontSize=7;" parent="RRfzHEm0QSZrdTFDj_sS-84" vertex="1">
          <mxGeometry y="240.00000000000006" width="50.25461538461538" height="20.000000000000004" as="geometry" />
        </mxCell>
        <mxCell id="tiWv2YmoTtYMi_YgK9l2-101" value="MDR" style="rounded=0;whiteSpace=wrap;html=1;strokeColor=none;fillColor=#242424;fontStyle=1;align=left;fontSize=7;" parent="RRfzHEm0QSZrdTFDj_sS-84" vertex="1">
          <mxGeometry y="219.9999999999999" width="50.25461538461538" height="20.000000000000004" as="geometry" />
        </mxCell>
        <mxCell id="tiWv2YmoTtYMi_YgK9l2-105" value="Second" style="rounded=0;whiteSpace=wrap;html=1;strokeColor=none;fillColor=#242424;fontStyle=1;align=left;fontSize=7;" parent="RRfzHEm0QSZrdTFDj_sS-84" vertex="1">
          <mxGeometry y="199.99999999999997" width="50.25461538461538" height="20.000000000000004" as="geometry" />
        </mxCell>
        <mxCell id="tiWv2YmoTtYMi_YgK9l2-109" value="First" style="rounded=0;whiteSpace=wrap;html=1;strokeColor=none;fillColor=#242424;fontStyle=1;align=left;fontSize=7;" parent="RRfzHEm0QSZrdTFDj_sS-84" vertex="1">
          <mxGeometry y="179.99999999999991" width="50.25461538461538" height="20.000000000000004" as="geometry" />
        </mxCell>
        <mxCell id="tiWv2YmoTtYMi_YgK9l2-113" value="BufferFirst" style="rounded=0;whiteSpace=wrap;html=1;strokeColor=none;fillColor=#242424;fontStyle=1;align=left;fontSize=7;" parent="RRfzHEm0QSZrdTFDj_sS-84" vertex="1">
          <mxGeometry y="160.00000000000003" width="50.25461538461538" height="20.000000000000004" as="geometry" />
        </mxCell>
        <mxCell id="tiWv2YmoTtYMi_YgK9l2-117" value="BufferSecond" style="rounded=0;whiteSpace=wrap;html=1;strokeColor=none;fillColor=#242424;fontStyle=1;align=left;fontSize=7;" parent="RRfzHEm0QSZrdTFDj_sS-84" vertex="1">
          <mxGeometry y="139.99999999999997" width="50.25461538461538" height="20.000000000000004" as="geometry" />
        </mxCell>
        <mxCell id="tiWv2YmoTtYMi_YgK9l2-121" value="Flags" style="rounded=0;whiteSpace=wrap;html=1;strokeColor=none;fillColor=#242424;fontStyle=1;align=left;fontSize=7;" parent="RRfzHEm0QSZrdTFDj_sS-84" vertex="1">
          <mxGeometry y="120" width="50.25461538461538" height="20.000000000000004" as="geometry" />
        </mxCell>
        <mxCell id="tiWv2YmoTtYMi_YgK9l2-125" value="RPC" style="rounded=0;whiteSpace=wrap;html=1;strokeColor=none;fillColor=#242424;fontStyle=1;align=left;fontSize=7;" parent="RRfzHEm0QSZrdTFDj_sS-84" vertex="1">
          <mxGeometry y="99.99999999999996" width="50.25461538461538" height="20.000000000000004" as="geometry" />
        </mxCell>
        <mxCell id="tiWv2YmoTtYMi_YgK9l2-130" value="Increment" style="rounded=0;whiteSpace=wrap;html=1;strokeColor=none;fillColor=#242424;fontStyle=1;align=left;fontSize=7;" parent="RRfzHEm0QSZrdTFDj_sS-84" vertex="1">
          <mxGeometry y="80.00000000000004" width="50.25461538461538" height="20.000000000000004" as="geometry" />
        </mxCell>
        <mxCell id="tiWv2YmoTtYMi_YgK9l2-135" value="Registers" style="rounded=0;whiteSpace=wrap;html=1;strokeColor=none;fillColor=#242424;fontStyle=1;align=left;fontSize=7;" parent="RRfzHEm0QSZrdTFDj_sS-84" vertex="1">
          <mxGeometry y="60" width="50.25461538461538" height="20.000000000000004" as="geometry" />
        </mxCell>
        <mxCell id="tiWv2YmoTtYMi_YgK9l2-140" value="MemAdder" style="rounded=0;whiteSpace=wrap;html=1;strokeColor=none;fillColor=#242424;fontStyle=1;align=left;fontSize=7;" parent="RRfzHEm0QSZrdTFDj_sS-84" vertex="1">
          <mxGeometry y="39.99999999999999" width="50.25461538461538" height="20.000000000000004" as="geometry" />
        </mxCell>
        <mxCell id="tiWv2YmoTtYMi_YgK9l2-144" value="CIRFirst" style="rounded=0;whiteSpace=wrap;html=1;strokeColor=none;fillColor=#242424;fontStyle=1;align=left;fontSize=7;" parent="RRfzHEm0QSZrdTFDj_sS-84" vertex="1">
          <mxGeometry y="20.000000000000025" width="50.25461538461538" height="20.000000000000004" as="geometry" />
        </mxCell>
        <mxCell id="tiWv2YmoTtYMi_YgK9l2-148" value="CIRSecond" style="rounded=0;whiteSpace=wrap;html=1;strokeColor=none;fillColor=#242424;fontStyle=1;align=left;fontSize=7;" parent="RRfzHEm0QSZrdTFDj_sS-84" vertex="1">
          <mxGeometry width="50.25461538461538" height="20.000000000000004" as="geometry" />
        </mxCell>
      </root>
    </mxGraphModel>
  </diagram>
</mxfile>
